<svg width="50" height="36" viewBox="0 0 50 36" xmlns="http://www.w3.org/2000/svg" xmlns:sketch="http://www.bohemiancoding.com/sketch/ns"><title>Page 1</title><desc>Created with Sketch.</desc><g sketch:type="MSLayerGroup" fill="#FEFEFE"><path d="M5.55.075h4.675c1.942 0 2.469.644 2.469 3.069 0 2.255-.528 3.069-2.493 3.069h-4.651v-6.138zm6.361 2.772c0-1.772-.519-2.094-1.478-2.094h-4.1v4.781h3.972c.951 0 1.606-.22 1.606-2.06v-.627z" sketch:type="MSShapeGroup"/><path d="M14.188.075h4.627c1.67 0 1.934.585 1.934 1.738v.5c0 .865-.464 1.102-1.063 1.162v.017c.799.153.991.593.991 1.153v1.568h-.735v-1.348c0-.958-.44-1.077-1.151-1.077h-3.82v2.425h-.783v-6.138zm4.539 3.035c.871 0 1.239-.246 1.239-.89v-.559c0-.687-.28-.907-1.43-.907h-3.564v2.357h3.756z" sketch:type="MSShapeGroup"/><path d="M22.284.075h5.682v.678h-4.899v1.958h4.707v.678h-4.707v2.145h4.931v.678h-5.714v-6.138z" sketch:type="MSShapeGroup"/><path d="M32.137.075h.975l3.436 6.138h-.887l-.719-1.297h-4.635l-.719 1.297h-.887l3.436-6.138zm.487.678l-1.942 3.484h3.884l-1.942-3.484z" sketch:type="MSShapeGroup"/><path d="M37.547.075h1.223l3.38 5.146 3.38-5.146h1.223v6.138h-.783v-5.392h-.016l-3.524 5.392h-.559l-3.524-5.392h-.016v5.392h-.783v-6.138z" sketch:type="MSShapeGroup"/><path d="M41.439 26.418h-.796l-1.002-3.18h.796l.611 2.269h.008l.632-2.269h.788l-1.036 3.18zm-2.547-2.564h-.783v2.564h-.75v-2.564h-.783v-.616h2.316v.616zm.553-3.588c-2.463 0-4.459 1.985-4.459 4.434s1.996 4.434 4.459 4.434c2.463 0 4.459-1.985 4.459-4.434s-1.996-4.434-4.459-4.434z" sketch:type="MSShapeGroup"/><path d="M7.854 15.561h.02l-2.202 3.751c2.331-.022 4.505-.041 5.284.04v.002c.462.036.908.13 1.33.273.637.174 1.104.446 1.535.813.271.205.521.436.749.687.346-1.104.852-2.158 1.512-3.131l.846-1.438c-.992-.695-2.141-1.22-3.416-1.543l.14-.257 4.03-6.916h-12.332l-.007 4.766h4.266l-1.755 2.953zm6.74 12.783c.531 1.653 1.411 3.151 2.556 4.408-1.801 1.475-4.108 2.361-6.623 2.361-5.756 0-10.423-4.64-10.423-10.365l.001-.086h4.981l-.002.086c0 2.989 2.437 5.412 5.443 5.412 1.618 0 3.07-.702 4.066-1.816z" sketch:type="MSShapeGroup"/><path d="M26.04 30.24c-2.467 0-4.55-1.633-5.218-3.87-.146-.489-.226-1.006-.226-1.543 0-.579.092-1.136.261-1.659.705-2.178 2.758-3.754 5.182-3.754 2.925 0 5.311 2.295 5.437 5.173l.006.24c0 1.524-.635 2.9-1.654 3.884-.98.946-2.316 1.529-3.789 1.529m9.975-1.335l.008-.02c-1.222-.99-2.005-2.498-2.005-4.185 0-1.671.768-3.167 1.972-4.158-.194-.452-.418-.888-.67-1.306-.469-.788-1.136-1.55-1.136-1.55-1.982-2.256-4.894-3.683-8.143-3.683l-.302.004 3.638-6.18h-5.851l-5.608 9.528-.77 1.309c-.789 1.154-1.357 2.47-1.646 3.886-.142.695-.218 1.414-.218 2.15 0 .76.08 1.501.231 2.216.399 1.892 1.297 3.601 2.553 4.984 1.978 2.18 4.841 3.551 8.027 3.551 2.662 0 5.098-.959 6.981-2.545.219-.184.432-.376.635-.577.981-.969 1.776-2.123 2.327-3.406l-.023-.018" sketch:type="MSShapeGroup"/><path d="M49.867 24.656c.006-.491-.02-.981-.081-1.467-.569-4.506-3.827-7.744-8.504-8.45l-.128-.018 1.18-2.146 4.308.017.068-4.766-1.76-.007-3.673-.014-2.001-.007-2.443 4.757-1.979 3.899c.787.826 1.455 1.765 1.982 2.786 1.409.006 2.637.025 3.055.07v.002c.462.037.907.133 1.329.278.636.176 1.101.45 1.531.819 1.303.993 2.141 2.557 2.135 4.316-.011 2.989-2.457 5.403-5.463 5.392-.828-.003-1.611-.191-2.312-.522-.697 1.545-1.711 2.919-2.962 4.036 1.541.906 3.336 1.431 5.256 1.438 5.756.021 10.441-4.602 10.462-10.326l-.001-.086" sketch:type="MSShapeGroup"/></g></svg>